<svg width="320" height="320" viewBox="0 0 320 320" fill="none" xmlns="http://www.w3.org/2000/svg">
<rect width="320" height="320" fill="white"/>
<path d="M94.8377 158.258C91.9452 152.565 49.2724 132.231 51.498 131.311C60.136 127.742 70.1992 127.241 79.2665 125.22C97.1663 121.231 121.462 114.642 125.835 116.434C132.179 119.035 149.916 156.929 155.513 138.28C156.891 133.687 172.367 104.47 164.731 99.3865C156.803 94.1083 113.955 75.8658 128.065 61.9575C131.741 58.3343 136.014 54.481 155.58 53.3243C221.144 49.448 248.253 81.2486 268.53 99.3865C288.806 117.524 263.244 146.095 256.144 161.066C252.961 167.778 254.064 179.369 248.812 181.57C245.368 183.012 209.777 177.512 213.563 186.749C215.017 190.299 225.292 197.105 221.053 198.779C209.369 203.391 194.531 208.216 184.985 216.616C180.52 220.546 176.366 225.303 172.068 223.465C166.943 221.275 122.62 200.003 127.098 215.54C128.543 220.555 143.519 258.919 143.519 258.919C143.519 258.919 118.946 260.101 106.968 262.929C100.105 264.549 87.8514 268.612 81.6115 264.149C76.5 260.493 59.7834 221.892 56.7339 216.036C52.5788 208.056 36.2332 187.764 48.4588 179.393C60.8505 170.909 79.7401 161.013 94.8377 158.258Z" fill="#4C74B9"/>
</svg>
